<svg width="72" height="72" viewBox="0 0 72 72" fill="none" xmlns="http://www.w3.org/2000/svg">
<g clip-path="url(#clip0_5012_38062)">
<mask id="mask0_5012_38062" style="mask-type:luminance" maskUnits="userSpaceOnUse" x="0" y="0" width="72" height="72">
<path d="M72 0H0V72H72V0Z" fill="white"/>
</mask>
<g mask="url(#mask0_5012_38062)">
<mask id="mask1_5012_38062" style="mask-type:luminance" maskUnits="userSpaceOnUse" x="-1" y="-1" width="74" height="74">
<path d="M-0.25 -0.25H72.25V72.25H-0.25V-0.25Z" fill="white"/>
</mask>
<g mask="url(#mask1_5012_38062)">
<path d="M3.8938 35.9882C3.8938 53.7122 18.2622 68.0805 35.9863 68.0805C53.7104 68.0805 68.0785 53.7122 68.0785 35.9882C68.0785 18.2641 53.7104 3.89582 35.9863 3.89582C18.2622 3.89582 3.8938 18.2641 3.8938 35.9882Z" fill="url(#paint0_linear_5012_38062)"/>
<path d="M5.98535 36.0866C5.98535 52.719 19.4688 66.2023 36.1012 66.2023C52.7337 66.2023 66.2168 52.719 66.2168 36.0866C66.2168 19.4541 52.7337 5.97084 36.1012 5.97084C19.4688 5.97084 5.98535 19.4541 5.98535 36.0866Z" fill="url(#paint1_linear_5012_38062)"/>
</g>
</g>
</g>
<defs>
<linearGradient id="paint0_linear_5012_38062" x1="53.1403" y1="62.9963" x2="16.5297" y2="10.8604" gradientUnits="userSpaceOnUse">
<stop stop-color="#E25A01" stop-opacity="0.726923"/>
<stop offset="0.5" stop-color="#F09701" stop-opacity="0.726923"/>
<stop offset="1" stop-color="#FFD400" stop-opacity="0.726923"/>
</linearGradient>
<linearGradient id="paint1_linear_5012_38062" x1="52.1987" y1="61.4313" x2="17.843" y2="12.5065" gradientUnits="userSpaceOnUse">
<stop stop-color="#E25A01"/>
<stop offset="0.5" stop-color="#F09701"/>
<stop offset="1" stop-color="#FFD400"/>
</linearGradient>
<clipPath id="clip0_5012_38062">
<rect width="72" height="72" fill="white"/>
</clipPath>
</defs>
</svg>
