<svg width="72" height="72" viewBox="0 0 72 72" fill="none" xmlns="http://www.w3.org/2000/svg">
<g clip-path="url(#clip0_5012_38317)">
<mask id="mask0_5012_38317" style="mask-type:luminance" maskUnits="userSpaceOnUse" x="0" y="0" width="72" height="72">
<path d="M72 0H0V72H72V0Z" fill="white"/>
</mask>
<g mask="url(#mask0_5012_38317)">
<mask id="mask1_5012_38317" style="mask-type:luminance" maskUnits="userSpaceOnUse" x="-1" y="-1" width="74" height="74">
<path d="M-0.25 -0.25H72.25V72.25H-0.25V-0.25Z" fill="white"/>
</mask>
<g mask="url(#mask1_5012_38317)">
<path d="M0.249512 35.9987C0.249512 55.7422 16.2551 71.7476 35.9986 71.7476C55.7422 71.7476 71.7474 55.7422 71.7474 35.9987C71.7474 16.2551 55.7422 0.249702 35.9986 0.249702C16.2551 0.249702 0.249512 16.2551 0.249512 35.9987Z" fill="url(#paint0_linear_5012_38317)"/>
<path d="M11.2802 36.0713C11.2802 49.7697 22.385 60.8744 36.0834 60.8744C49.7817 60.8744 60.8863 49.7697 60.8863 36.0713C60.8863 22.373 49.7817 11.2683 36.0834 11.2683C22.385 11.2683 11.2802 22.373 11.2802 36.0713Z" fill="url(#paint1_linear_5012_38317)"/>
</g>
</g>
</g>
<defs>
<linearGradient id="paint0_linear_5012_38317" x1="55.1071" y1="66.0841" x2="14.3251" y2="8.00786" gradientUnits="userSpaceOnUse">
<stop stop-color="#E25A01" stop-opacity="0.396154"/>
<stop offset="0.5" stop-color="#F09701" stop-opacity="0.396154"/>
<stop offset="1" stop-color="#FFD400" stop-opacity="0.396154"/>
</linearGradient>
<linearGradient id="paint1_linear_5012_38317" x1="49.3411" y1="56.945" x2="21.046" y2="16.651" gradientUnits="userSpaceOnUse">
<stop stop-color="#E25A01"/>
<stop offset="0.5" stop-color="#F09701"/>
<stop offset="1" stop-color="#FFD400"/>
</linearGradient>
<clipPath id="clip0_5012_38317">
<rect width="72" height="72" fill="white"/>
</clipPath>
</defs>
</svg>
