<svg width="72" height="72" viewBox="0 0 72 72" fill="none" xmlns="http://www.w3.org/2000/svg">
<g clip-path="url(#clip0_5012_38197)">
<mask id="mask0_5012_38197" style="mask-type:luminance" maskUnits="userSpaceOnUse" x="0" y="0" width="72" height="72">
<path d="M72 0H0V72H72V0Z" fill="white"/>
</mask>
<g mask="url(#mask0_5012_38197)">
<mask id="mask1_5012_38197" style="mask-type:luminance" maskUnits="userSpaceOnUse" x="-1" y="-1" width="74" height="74">
<path d="M-0.25 -0.25H72.25V72.25H-0.25V-0.25Z" fill="white"/>
</mask>
<g mask="url(#mask1_5012_38197)">
<path d="M0.0541992 35.9992C0.0541992 55.8511 16.1475 71.9442 35.9994 71.9442C55.8512 71.9442 71.9442 55.8511 71.9442 35.9992C71.9442 16.1474 55.8512 0.0542259 35.9994 0.0542259C16.1475 0.0542259 0.0541992 16.1474 0.0541992 35.9992Z" fill="url(#paint0_linear_5012_38197)"/>
<path d="M11.9053 36.0695C11.9053 49.4216 22.7294 60.2455 36.0814 60.2455C49.4334 60.2455 60.2573 49.4216 60.2573 36.0695C60.2573 22.7175 49.4334 11.8935 36.0814 11.8935C22.7294 11.8935 11.9053 22.7175 11.9053 36.0695Z" fill="url(#paint1_linear_5012_38197)"/>
</g>
</g>
</g>
<defs>
<linearGradient id="paint0_linear_5012_38197" x1="55.2126" y1="66.2496" x2="14.207" y2="7.85493" gradientUnits="userSpaceOnUse">
<stop stop-color="#E25A01" stop-opacity="0.565385"/>
<stop offset="0.5" stop-color="#F09701" stop-opacity="0.565385"/>
<stop offset="1" stop-color="#FFD400" stop-opacity="0.565385"/>
</linearGradient>
<linearGradient id="paint1_linear_5012_38197" x1="49.0039" y1="56.4155" x2="21.4242" y2="17.1402" gradientUnits="userSpaceOnUse">
<stop stop-color="#E25A01"/>
<stop offset="0.5" stop-color="#F09701"/>
<stop offset="1" stop-color="#FFD400"/>
</linearGradient>
<clipPath id="clip0_5012_38197">
<rect width="72" height="72" fill="white"/>
</clipPath>
</defs>
</svg>
