<svg width="72" height="72" viewBox="0 0 72 72" fill="none" xmlns="http://www.w3.org/2000/svg">
<g clip-path="url(#clip0_5012_38437)">
<mask id="mask0_5012_38437" style="mask-type:luminance" maskUnits="userSpaceOnUse" x="0" y="0" width="72" height="72">
<path d="M72 0H0V72H72V0Z" fill="white"/>
</mask>
<g mask="url(#mask0_5012_38437)">
<mask id="mask1_5012_38437" style="mask-type:luminance" maskUnits="userSpaceOnUse" x="-1" y="-1" width="74" height="74">
<path d="M-0.25 -0.25H72.25V72.25H-0.25V-0.25Z" fill="white"/>
</mask>
<g mask="url(#mask1_5012_38437)">
<path d="M0.965942 35.9966C0.965942 55.3431 16.6496 71.0267 35.9962 71.0267C55.3428 71.0267 71.0261 55.3431 71.0261 35.9966C71.0261 16.65 55.3428 0.966492 35.9962 0.966492C16.6496 0.966492 0.965942 16.65 0.965942 35.9966Z" fill="url(#paint0_linear_5012_38437)"/>
<path d="M7.98193 36.0808C7.98193 51.6068 20.5684 64.1932 36.0944 64.1932C51.6204 64.1932 64.2066 51.6068 64.2066 36.0808C64.2066 20.5548 51.6204 7.96851 36.0944 7.96851C20.5684 7.96851 7.98193 20.5548 7.98193 36.0808Z" fill="url(#paint1_linear_5012_38437)"/>
</g>
</g>
</g>
<defs>
<linearGradient id="paint0_linear_5012_38437" x1="54.7205" y1="65.4771" x2="14.7585" y2="8.56865" gradientUnits="userSpaceOnUse">
<stop stop-color="#E25A01" stop-opacity="0.25"/>
<stop offset="0.5" stop-color="#F09701" stop-opacity="0.25"/>
<stop offset="1" stop-color="#FFD400" stop-opacity="0.25"/>
</linearGradient>
<linearGradient id="paint1_linear_5012_38437" x1="51.121" y1="59.7395" x2="19.0507" y2="14.0694" gradientUnits="userSpaceOnUse">
<stop stop-color="#E25A01"/>
<stop offset="0.5" stop-color="#F09701"/>
<stop offset="1" stop-color="#FFD400"/>
</linearGradient>
<clipPath id="clip0_5012_38437">
<rect width="72" height="72" fill="white"/>
</clipPath>
</defs>
</svg>
