<svg width="72" height="72" viewBox="0 0 72 72" fill="none" xmlns="http://www.w3.org/2000/svg">
<g clip-path="url(#clip0_5012_38362)">
<mask id="mask0_5012_38362" style="mask-type:luminance" maskUnits="userSpaceOnUse" x="0" y="0" width="72" height="72">
<path d="M72 0H0V72H72V0Z" fill="white"/>
</mask>
<g mask="url(#mask0_5012_38362)">
<mask id="mask1_5012_38362" style="mask-type:luminance" maskUnits="userSpaceOnUse" x="-1" y="-1" width="74" height="74">
<path d="M-0.25 -0.25H72.25V72.25H-0.25V-0.25Z" fill="white"/>
</mask>
<g mask="url(#mask1_5012_38362)">
<path d="M0.432373 35.9981C0.432373 55.6403 16.3558 71.5635 35.998 71.5635C55.6402 71.5635 71.5632 55.6403 71.5632 35.9981C71.5632 16.3559 55.6402 0.432678 35.998 0.432678C16.3558 0.432678 0.432373 16.3559 0.432373 35.9981Z" fill="url(#paint0_linear_5012_38362)"/>
<path d="M10.5044 36.0736C10.5044 50.2018 21.9577 61.6549 36.0859 61.6549C50.2141 61.6549 61.6671 50.2018 61.6671 36.0736C61.6671 21.9454 50.2141 10.4922 36.0859 10.4922C21.9577 10.4922 10.5044 21.9454 10.5044 36.0736Z" fill="url(#paint1_linear_5012_38362)"/>
</g>
</g>
</g>
<defs>
<linearGradient id="paint0_linear_5012_38362" x1="55.0084" y1="65.9291" x2="14.4357" y2="8.15101" gradientUnits="userSpaceOnUse">
<stop stop-color="#E25A01" stop-opacity="0.342308"/>
<stop offset="0.5" stop-color="#F09701" stop-opacity="0.342308"/>
<stop offset="1" stop-color="#FFD400" stop-opacity="0.342308"/>
</linearGradient>
<linearGradient id="paint1_linear_5012_38362" x1="49.7596" y1="57.6022" x2="20.5767" y2="16.0438" gradientUnits="userSpaceOnUse">
<stop stop-color="#E25A01"/>
<stop offset="0.5" stop-color="#F09701"/>
<stop offset="1" stop-color="#FFD400"/>
</linearGradient>
<clipPath id="clip0_5012_38362">
<rect width="72" height="72" fill="white"/>
</clipPath>
</defs>
</svg>
