<svg width="72" height="72" viewBox="0 0 72 72" fill="none" xmlns="http://www.w3.org/2000/svg">
<g clip-path="url(#clip0_5012_38617)">
<mask id="mask0_5012_38617" style="mask-type:luminance" maskUnits="userSpaceOnUse" x="0" y="0" width="72" height="72">
<path d="M72 0H0V72H72V0Z" fill="white"/>
</mask>
<g mask="url(#mask0_5012_38617)">
<mask id="mask1_5012_38617" style="mask-type:luminance" maskUnits="userSpaceOnUse" x="-1" y="-1" width="74" height="74">
<path d="M-0.25 -0.25H72.25V72.25H-0.25V-0.25Z" fill="white"/>
</mask>
<g mask="url(#mask1_5012_38617)">
<path d="M5.49182 35.9836C5.49182 52.8221 19.1423 66.4725 35.9809 66.4725C52.8194 66.4725 66.4697 52.8221 66.4697 35.9836C66.4697 19.145 52.8194 5.49463 35.9809 5.49463C19.1423 5.49463 5.49182 19.145 5.49182 35.9836Z" fill="url(#paint0_linear_5012_38617)"/>
<path d="M5.8988 36.0868C5.8988 52.7672 19.4211 66.2893 36.1015 66.2893C52.7818 66.2893 66.3038 52.7672 66.3038 36.0868C66.3038 19.4065 52.7818 5.88434 36.1015 5.88434C19.4211 5.88434 5.8988 19.4065 5.8988 36.0868Z" fill="url(#paint1_linear_5012_38617)"/>
</g>
</g>
</g>
<defs>
<linearGradient id="paint0_linear_5012_38617" x1="52.2778" y1="61.6423" x2="17.4964" y2="12.1113" gradientUnits="userSpaceOnUse">
<stop stop-color="#E25A01" stop-opacity="0.0192308"/>
<stop offset="0.5" stop-color="#F09701" stop-opacity="0.0192308"/>
<stop offset="1" stop-color="#FFD400" stop-opacity="0.0192308"/>
</linearGradient>
<linearGradient id="paint1_linear_5012_38617" x1="52.2453" y1="61.5045" x2="17.7906" y2="12.4388" gradientUnits="userSpaceOnUse">
<stop stop-color="#E25A01"/>
<stop offset="0.5" stop-color="#F09701"/>
<stop offset="1" stop-color="#FFD400"/>
</linearGradient>
<clipPath id="clip0_5012_38617">
<rect width="72" height="72" fill="white"/>
</clipPath>
</defs>
</svg>
