<svg width="72" height="72" viewBox="0 0 72 72" fill="none" xmlns="http://www.w3.org/2000/svg">
<g clip-path="url(#clip0_5012_38542)">
<mask id="mask0_5012_38542" style="mask-type:luminance" maskUnits="userSpaceOnUse" x="0" y="0" width="72" height="72">
<path d="M72 0H0V72H72V0Z" fill="white"/>
</mask>
<g mask="url(#mask0_5012_38542)">
<mask id="mask1_5012_38542" style="mask-type:luminance" maskUnits="userSpaceOnUse" x="-1" y="-1" width="74" height="74">
<path d="M-0.25 -0.25H72.25V72.25H-0.25V-0.25Z" fill="white"/>
</mask>
<g mask="url(#mask1_5012_38542)">
<path d="M2.84546 35.9912C2.84546 54.2962 17.6848 69.1354 35.9898 69.1354C54.2948 69.1354 69.1338 54.2962 69.1338 35.9912C69.1338 17.6862 54.2948 2.84698 35.9898 2.84698C17.6848 2.84698 2.84546 17.6862 2.84546 35.9912Z" fill="url(#paint0_linear_5012_38542)"/>
<path d="M6.13672 36.0861C6.13672 52.6346 19.5521 66.0499 36.1006 66.0499C52.6491 66.0499 66.0641 52.6346 66.0641 36.0861C66.0641 19.5377 52.6491 6.12244 36.1006 6.12244C19.5521 6.12244 6.13672 19.5377 6.13672 36.0861Z" fill="url(#paint1_linear_5012_38542)"/>
</g>
</g>
</g>
<defs>
<linearGradient id="paint0_linear_5012_38542" x1="53.706" y1="63.8845" x2="15.8955" y2="10.0399" gradientUnits="userSpaceOnUse">
<stop stop-color="#E25A01" stop-opacity="0.111538"/>
<stop offset="0.5" stop-color="#F09701" stop-opacity="0.111538"/>
<stop offset="1" stop-color="#FFD400" stop-opacity="0.111538"/>
</linearGradient>
<linearGradient id="paint1_linear_5012_38542" x1="52.1168" y1="61.3029" x2="17.9345" y2="12.6251" gradientUnits="userSpaceOnUse">
<stop stop-color="#E25A01"/>
<stop offset="0.5" stop-color="#F09701"/>
<stop offset="1" stop-color="#FFD400"/>
</linearGradient>
<clipPath id="clip0_5012_38542">
<rect width="72" height="72" fill="white"/>
</clipPath>
</defs>
</svg>
